<?xml version="1.0" standalone="no"?>
<!DOCTYPE svg PUBLIC "-//W3C//DTD SVG 20010904//EN"
 "http://www.w3.org/TR/2001/REC-SVG-20010904/DTD/svg10.dtd">
<svg version="1.0" xmlns="http://www.w3.org/2000/svg"
 width="1250.000000pt" height="93.000000pt" viewBox="0 0 1250.000000 93.000000"
 preserveAspectRatio="xMidYMid meet">

<g transform="translate(0.000000,93.000000) scale(0.100000,-0.100000)"
fill="#000000" stroke="none">
<path d="M4 868 c3 -35 9 -141 12 -235 l7 -173 104 0 103 0 -2 233 -3 232
-114 3 -113 3 6 -63z"/>
<path d="M317 768 l6 -163 -31 -72 -31 -73 134 0 135 0 0 235 0 235 -109 0
-110 0 6 -162z"/>
<path d="M766 922 c-11 -18 -196 -446 -196 -454 0 -5 45 -7 101 -6 l100 3 110
229 c60 126 109 231 109 233 0 7 -219 2 -224 -5z"/>
<path d="M1046 913 c-3 -10 -23 -106 -46 -213 -22 -107 -43 -205 -46 -217 l-6
-23 225 0 224 0 12 57 c6 31 11 60 11 65 0 4 -50 8 -111 8 l-111 0 7 46 c3 26
9 53 12 60 7 20 196 19 251 0 37 -13 41 -13 46 2 8 28 46 211 46 222 0 6 -89
10 -254 10 -234 0 -255 -1 -260 -17z"/>
<path d="M1635 918 c-5 -16 -95 -442 -95 -451 0 -4 49 -7 108 -7 l109 0 47
223 c25 122 46 228 46 235 0 9 -28 12 -105 12 -76 0 -107 -4 -110 -12z"/>
<path d="M2175 918 c-4 -14 -95 -445 -95 -453 0 -3 49 -5 109 -5 l108 0 17 88
c10 48 22 104 27 125 l10 37 102 0 c61 -1 118 -7 142 -15 21 -8 40 -13 42 -11
3 2 53 231 53 241 0 3 -115 5 -255 5 -196 0 -257 -3 -260 -12z"/>
<path d="M2793 915 c-13 -9 -27 -24 -33 -35 -9 -18 -90 -382 -90 -408 0 -10
25 -12 108 -10 l107 3 21 102 c30 142 24 133 94 133 33 0 60 -2 60 -4 0 -8
-41 -202 -46 -218 -5 -16 4 -18 105 -18 l109 0 15 68 c55 244 71 341 62 369
l-10 28 -240 3 c-205 2 -243 0 -262 -13z"/>
<path d="M3380 873 c-1 -32 -18 -137 -39 -233 l-38 -175 345 -3 c190 -1 346
-1 348 1 5 5 94 432 94 450 0 15 -14 17 -98 17 l-98 0 -114 -201 c-70 -122
-116 -194 -118 -183 -2 11 -15 100 -30 199 l-27 180 -112 3 -113 3 0 -58z"/>
<path d="M4165 908 c-3 -13 -23 -108 -45 -213 -22 -104 -42 -200 -45 -212 l-5
-23 223 0 224 0 11 51 c20 84 25 79 -98 79 -63 0 -110 4 -110 10 0 5 5 32 11
60 l11 50 103 0 c64 0 118 -5 143 -14 37 -13 41 -13 46 2 9 30 46 206 46 219
0 10 -53 13 -255 13 l-255 0 -5 -22z"/>
<path d="M5022 843 c-11 -49 -23 -105 -27 -125 l-7 -37 48 15 c26 8 62 14 81
14 40 0 41 -7 13 -134 -11 -50 -20 -96 -20 -103 0 -11 23 -13 108 -11 l107 3
25 120 25 120 36 3 c20 2 55 -4 79 -12 25 -8 45 -14 45 -13 5 8 45 215 45 230
0 16 -20 17 -269 17 l-269 0 -20 -87z"/>
<path d="M5675 904 c-29 -31 -25 -17 -70 -234 -20 -96 -38 -183 -41 -192 -5
-16 5 -18 105 -18 61 0 111 2 111 5 0 5 31 148 45 213 5 20 11 22 65 22 71 0
70 2 40 -130 -11 -47 -20 -91 -20 -97 0 -10 28 -13 108 -13 l108 0 43 209 c42
201 43 211 27 235 l-16 26 -241 0 -240 0 -24 -26z"/>
<path d="M6560 880 c0 -40 -54 -328 -76 -402 -5 -17 16 -18 344 -18 l348 0 47
223 c26 122 47 228 47 235 0 9 -26 12 -99 12 l-99 0 -113 -200 c-63 -110 -116
-195 -118 -189 -2 6 -15 95 -30 198 l-26 186 -113 3 -112 3 0 -51z"/>
<path d="M7345 918 c-20 -64 -74 -368 -70 -393 15 -71 -11 -65 274 -65 l257 0
47 223 c26 122 47 228 47 235 0 10 -25 12 -107 10 l-107 -3 -45 -214 -45 -214
-38 42 c-52 60 -56 90 -24 240 14 69 26 132 26 139 0 9 -28 12 -105 12 -76 0
-107 -4 -110 -12z"/>
<path d="M8246 858 c-9 -40 -31 -146 -50 -236 l-34 -162 260 2 261 3 29 51
c18 33 39 99 58 185 36 161 38 204 11 219 -12 6 -116 10 -269 10 l-250 0 -16
-72z m304 -163 c0 -36 -31 -84 -90 -138 -34 -32 -64 -56 -66 -54 -3 2 5 50 17
106 l22 101 58 0 c46 0 59 -3 59 -15z"/>
<path d="M8906 901 c-23 -24 -32 -55 -70 -232 l-43 -204 105 -3 c58 -1 107 -1
109 2 3 2 15 51 27 109 13 57 26 109 30 115 7 12 107 17 118 7 2 -3 -6 -53
-18 -112 -13 -60 -24 -111 -24 -115 0 -5 49 -8 108 -8 l108 0 42 199 c23 109
42 207 42 219 0 49 -14 52 -269 52 l-237 0 -28 -29z"/>
<path d="M9526 913 c-5 -17 -96 -442 -96 -450 0 -1 116 -3 258 -3 l257 0 26
43 c32 51 41 80 74 230 29 139 30 160 9 181 -13 14 -52 16 -269 16 -233 0
-254 -1 -259 -17z m289 -212 c13 -22 -30 -94 -88 -147 -34 -30 -63 -50 -65
-45 -3 9 20 130 35 184 3 13 15 17 58 17 30 0 56 -4 60 -9z"/>
<path d="M10141 823 c-12 -60 -24 -115 -27 -124 -4 -15 1 -15 48 -3 52 14 118
19 118 9 0 -3 -11 -57 -25 -121 -14 -64 -25 -117 -25 -120 0 -2 49 -4 108 -4
l109 0 22 108 c32 152 27 142 69 142 20 -1 55 -7 77 -15 21 -8 40 -13 41 -12
2 3 54 234 54 242 0 3 -123 5 -273 5 l-274 0 -22 -107z"/>
<path d="M10737 708 c-26 -123 -47 -229 -47 -235 0 -10 51 -13 220 -13 l219 0
10 38 c5 20 12 49 15 65 l6 27 -115 0 c-63 0 -115 3 -115 8 0 4 6 30 13 57
l13 50 107 3 c78 2 116 -1 143 -13 20 -8 38 -14 39 -13 1 2 12 50 24 108 12
58 25 113 27 123 5 16 -12 17 -253 17 l-259 0 -47 -222z"/>
<path d="M11386 901 c-23 -24 -32 -55 -70 -232 l-43 -204 105 -3 c58 -1 107
-1 109 2 3 2 15 51 27 109 13 57 26 109 30 115 7 12 107 17 118 7 2 -3 -6 -53
-18 -112 -13 -60 -24 -111 -24 -115 0 -5 49 -8 108 -8 l108 0 42 199 c23 109
42 207 42 219 0 49 -14 52 -269 52 l-237 0 -28 -29z"/>
<path d="M12006 913 c-5 -17 -96 -442 -96 -450 0 -1 50 -3 110 -3 61 0 110 2
110 5 0 2 20 99 45 215 25 116 45 219 45 230 0 19 -7 20 -104 20 -91 0 -105
-2 -110 -17z"/>
<path d="M12486 548 c-4 -24 -9 -53 -13 -65 -4 -17 -1 -23 11 -23 13 0 16 12
16 65 0 36 -2 65 -4 65 -2 0 -6 -19 -10 -42z"/>
<path d="M30 425 l0 -25 355 0 c340 0 355 1 365 19 5 11 10 22 10 25 0 3 -44
6 -99 6 -91 0 -100 -2 -114 -22 l-16 -23 0 23 c-1 22 -3 22 -139 22 -134 0
-139 -1 -150 -22 l-11 -23 0 23 c-1 21 -4 22 -101 22 l-100 0 0 -25z"/>
<path d="M947 443 c-4 -3 -7 -15 -7 -25 0 -17 12 -18 223 -16 222 3 222 3 225
26 l3 22 -219 0 c-120 0 -222 -3 -225 -7z"/>
<path d="M1530 425 l0 -26 108 3 c102 3 107 4 110 26 3 22 2 22 -107 22 l-111
0 0 -25z"/>
<path d="M2070 425 l0 -26 108 3 c102 3 107 4 110 26 3 22 2 22 -107 22 l-111
0 0 -25z"/>
<path d="M2658 425 l-5 -25 107 0 c109 0 120 4 120 41 0 5 -49 9 -109 9 -108
0 -109 0 -113 -25z"/>
<path d="M3006 434 c-12 -31 -4 -34 103 -34 108 0 109 0 113 25 l5 25 -107 0
c-89 0 -109 -3 -114 -16z"/>
<path d="M3296 434 c-3 -9 -6 -20 -6 -25 0 -5 144 -9 350 -9 l350 0 0 25 0 25
-344 0 c-304 0 -345 -2 -350 -16z"/>
<path d="M4067 443 c-4 -3 -7 -15 -7 -25 0 -17 13 -18 225 -18 l225 0 0 25 0
25 -218 0 c-120 0 -222 -3 -225 -7z"/>
<path d="M5098 425 l-5 -25 107 0 c109 0 120 4 120 41 0 5 -49 9 -109 9 -108
0 -109 0 -113 -25z"/>
<path d="M5556 434 c-12 -31 -4 -34 103 -34 108 0 109 0 113 25 l5 25 -107 0
c-89 0 -109 -3 -114 -16z"/>
<path d="M5897 425 l-4 -26 111 3 c107 3 111 4 114 26 3 22 2 22 -106 22 -109
0 -110 0 -115 -25z"/>
<path d="M6476 434 c-3 -9 -6 -20 -6 -25 0 -6 138 -8 348 -7 l347 3 3 23 3 22
-344 0 c-305 0 -346 -2 -351 -16z"/>
<path d="M7300 443 c0 -5 7 -16 14 -26 12 -16 34 -17 247 -15 l234 3 3 23 3
22 -250 0 c-138 0 -251 -3 -251 -7z"/>
<path d="M8156 434 c-3 -9 -6 -20 -6 -25 0 -5 98 -9 233 -9 l234 0 23 25 23
25 -250 0 c-220 0 -252 -2 -257 -16z"/>
<path d="M8786 434 c-12 -31 -4 -34 103 -34 108 0 109 0 113 25 l5 25 -107 0
c-89 0 -109 -3 -114 -16z"/>
<path d="M9130 425 l0 -26 108 3 c102 3 107 4 110 26 3 22 2 22 -107 22 l-111
0 0 -25z"/>
<path d="M9427 443 c-4 -3 -7 -15 -7 -25 0 -17 14 -18 233 -18 l234 0 23 25
23 25 -250 0 c-137 0 -253 -3 -256 -7z"/>
<path d="M10227 443 c-4 -3 -7 -15 -7 -25 0 -16 10 -18 110 -18 l110 0 0 25 0
25 -103 0 c-57 0 -107 -3 -110 -7z"/>
<path d="M10680 441 c0 -5 -3 -16 -6 -25 -5 -14 18 -16 220 -16 131 0 226 4
226 9 0 5 3 16 6 25 5 14 -18 16 -220 16 -131 0 -226 -4 -226 -9z"/>
<path d="M11266 434 c-12 -31 -4 -34 103 -34 108 0 109 0 113 25 l5 25 -107 0
c-89 0 -109 -3 -114 -16z"/>
<path d="M11610 425 l0 -26 108 3 c102 3 107 4 110 26 3 22 2 22 -107 22
l-111 0 0 -25z"/>
<path d="M11907 443 c-4 -3 -7 -15 -7 -25 0 -16 10 -18 110 -18 l110 0 0 25 0
25 -103 0 c-57 0 -107 -3 -110 -7z"/>
<path d="M12460 425 c0 -18 5 -25 20 -25 15 0 20 7 20 25 0 18 -5 25 -20 25
-15 0 -20 -7 -20 -25z"/>
<path d="M30 355 l0 -25 338 0 339 0 11 25 12 25 -350 0 -350 0 0 -25z"/>
<path d="M930 371 c0 -5 -3 -16 -6 -25 -5 -14 8 -16 110 -16 l116 0 0 25 0 25
-110 0 c-60 0 -110 -4 -110 -9z"/>
<path d="M1516 364 c-12 -31 -4 -34 104 -34 61 0 110 4 110 9 0 5 3 16 6 25 5
14 -8 16 -104 16 -91 0 -111 -3 -116 -16z"/>
<path d="M2056 364 c-12 -31 -4 -34 109 -34 l115 0 0 25 0 25 -109 0 c-90 0
-110 -3 -115 -16z"/>
<path d="M2647 373 c-4 -3 -7 -15 -7 -25 0 -16 10 -18 109 -18 108 0 109 0
113 25 l5 25 -107 0 c-59 0 -110 -3 -113 -7z"/>
<path d="M2988 355 l-5 -25 107 0 c109 0 120 4 120 41 0 5 -49 9 -109 9 -108
0 -109 0 -113 -25z"/>
<path d="M3277 355 l-4 -26 111 3 c107 3 111 4 114 26 3 22 2 22 -106 22 -109
0 -110 0 -115 -25z"/>
<path d="M3514 364 c3 -9 6 -20 6 -25 0 -6 42 -9 101 -7 93 3 103 5 117 26
l14 22 -122 0 c-107 0 -121 -2 -116 -16z"/>
<path d="M3760 371 c0 -5 -3 -16 -6 -25 -5 -14 8 -16 105 -16 61 0 111 4 111
9 0 5 3 16 6 25 5 14 -8 16 -105 16 -61 0 -111 -4 -111 -9z"/>
<path d="M4050 371 c0 -5 -3 -16 -6 -25 -5 -14 8 -16 110 -16 l116 0 0 25 0
25 -110 0 c-60 0 -110 -4 -110 -9z"/>
<path d="M5087 373 c-4 -3 -7 -15 -7 -25 0 -16 10 -18 109 -18 108 0 109 0
113 25 l5 25 -107 0 c-59 0 -110 -3 -113 -7z"/>
<path d="M5538 355 l-5 -25 107 0 c109 0 120 4 120 41 0 5 -49 9 -109 9 -108
0 -109 0 -113 -25z"/>
<path d="M5886 364 c-12 -31 -4 -34 103 -34 108 0 109 0 113 25 l5 25 -107 0
c-89 0 -109 -3 -114 -16z"/>
<path d="M6458 355 l-5 -25 107 0 c109 0 120 4 120 41 0 5 -49 9 -109 9 -108
0 -109 0 -113 -25z"/>
<path d="M6690 371 c0 -37 12 -41 110 -41 93 0 98 1 114 25 l16 25 -120 0
c-66 0 -120 -4 -120 -9z"/>
<path d="M6940 371 c0 -5 -3 -16 -6 -25 -5 -14 8 -16 105 -16 61 0 111 4 111
9 0 5 3 16 6 25 5 14 -8 16 -105 16 -61 0 -111 -4 -111 -9z"/>
<path d="M7360 355 l23 -25 199 0 c113 0 198 4 198 9 0 5 3 16 6 25 5 14 -18
16 -222 16 l-227 0 23 -25z"/>
<path d="M8138 355 l-5 -25 196 0 c193 0 196 0 226 25 l30 24 -221 1 -222 0
-4 -25z"/>
<path d="M8767 355 l-4 -26 111 3 c107 3 111 4 114 26 3 22 2 22 -106 22 -109
0 -110 0 -115 -25z"/>
<path d="M9120 371 c0 -5 -3 -16 -6 -25 -5 -14 8 -16 105 -16 61 0 111 4 111
9 0 5 3 16 6 25 5 14 -8 16 -105 16 -61 0 -111 -4 -111 -9z"/>
<path d="M9410 371 c0 -5 -3 -16 -6 -25 -5 -14 18 -16 222 -16 175 0 225 3
216 12 -8 8 -9 15 -1 25 10 11 -27 13 -210 13 -127 0 -221 -4 -221 -9z"/>
<path d="M10210 371 c0 -5 -3 -16 -6 -25 -5 -14 8 -16 105 -16 61 0 111 4 111
9 0 5 3 16 6 25 5 14 -8 16 -105 16 -61 0 -111 -4 -111 -9z"/>
<path d="M10667 373 c-4 -3 -7 -15 -7 -25 0 -16 10 -18 110 -18 l110 0 0 25 0
25 -103 0 c-57 0 -107 -3 -110 -7z"/>
<path d="M11247 355 l-4 -26 111 3 c107 3 111 4 114 26 3 22 2 22 -106 22
-109 0 -110 0 -115 -25z"/>
<path d="M11600 371 c0 -5 -3 -16 -6 -25 -5 -14 8 -16 105 -16 61 0 111 4 111
9 0 5 3 16 6 25 5 14 -8 16 -105 16 -61 0 -111 -4 -111 -9z"/>
<path d="M11890 371 c0 -5 -3 -16 -6 -25 -5 -14 8 -16 104 -16 111 0 122 4
122 41 0 5 -49 9 -110 9 -60 0 -110 -4 -110 -9z"/>
<path d="M12450 371 c0 -5 -3 -16 -6 -25 -5 -13 1 -16 25 -16 26 0 31 4 31 25
0 20 -5 25 -25 25 -14 0 -25 -4 -25 -9z"/>
<path d="M30 290 c0 -20 7 -20 324 -20 286 0 325 2 330 16 3 9 6 18 6 20 0 2
-148 4 -330 4 -323 0 -330 0 -330 -20z"/>
<path d="M920 290 c0 -19 7 -20 130 -20 128 0 130 0 118 20 -12 18 -24 20
-130 20 -111 0 -118 -1 -118 -20z"/>
<path d="M1500 290 c0 -19 7 -20 110 -20 103 0 110 1 110 20 0 19 -7 20 -110
20 -103 0 -110 -1 -110 -20z"/>
<path d="M2050 290 c0 -19 7 -20 126 -20 111 0 125 2 120 16 -3 9 -6 18 -6 20
0 2 -54 4 -120 4 -113 0 -120 -1 -120 -20z"/>
<path d="M2630 290 c0 -20 5 -21 107 -18 93 3 108 5 111 21 3 15 -7 17 -107
17 -105 0 -111 -1 -111 -20z"/>
<path d="M2976 294 c-3 -9 -6 -18 -6 -20 0 -2 49 -4 109 -4 100 0 109 2 114
20 5 19 0 20 -103 20 -89 0 -109 -3 -114 -16z"/>
<path d="M3266 294 c-3 -9 -6 -18 -6 -20 0 -2 49 -4 109 -4 100 0 109 2 114
20 5 19 0 20 -103 20 -89 0 -109 -3 -114 -16z"/>
<path d="M3530 290 c0 -18 7 -20 78 -20 66 0 79 3 90 20 12 19 10 20 -78 20
-83 0 -90 -1 -90 -20z"/>
<path d="M3747 303 c-4 -3 -7 -12 -7 -20 0 -10 25 -13 110 -13 103 0 110 1
110 20 0 19 -7 20 -103 20 -57 0 -107 -3 -110 -7z"/>
<path d="M4040 290 c0 -19 7 -20 130 -20 128 0 130 0 118 20 -12 18 -24 20
-130 20 -111 0 -118 -1 -118 -20z"/>
<path d="M5070 290 c0 -20 5 -21 107 -18 93 3 108 5 111 21 3 15 -7 17 -107
17 -105 0 -111 -1 -111 -20z"/>
<path d="M5527 303 c-4 -3 -7 -12 -7 -20 0 -10 25 -13 109 -13 100 0 109 2
114 20 5 19 0 20 -102 20 -59 0 -111 -3 -114 -7z"/>
<path d="M5870 290 c0 -20 5 -21 107 -18 93 3 108 5 111 21 3 15 -7 17 -107
17 -105 0 -111 -1 -111 -20z"/>
<path d="M6447 303 c-4 -3 -7 -12 -7 -20 0 -10 25 -13 109 -13 100 0 109 2
114 20 5 19 0 20 -102 20 -59 0 -111 -3 -114 -7z"/>
<path d="M6707 290 c5 -18 14 -20 83 -20 74 0 90 6 90 36 0 2 -40 4 -89 4 -84
0 -89 -1 -84 -20z"/>
<path d="M6920 290 c0 -19 7 -20 110 -20 103 0 110 1 110 20 0 19 -7 20 -110
20 -103 0 -110 -1 -110 -20z"/>
<path d="M7439 290 c21 -18 39 -20 177 -20 147 0 154 1 154 20 0 19 -7 20
-177 20 l-178 -1 24 -19z"/>
<path d="M8126 294 c-3 -9 -6 -18 -6 -20 0 -2 68 -4 150 -4 116 0 158 4 180
15 17 9 30 18 30 20 0 3 -78 5 -174 5 -149 0 -175 -2 -180 -16z"/>
<path d="M8756 294 c-3 -9 -6 -18 -6 -20 0 -2 49 -4 109 -4 100 0 109 2 114
20 5 19 0 20 -103 20 -89 0 -109 -3 -114 -16z"/>
<path d="M9100 290 c0 -19 7 -20 110 -20 103 0 110 1 110 20 0 19 -7 20 -110
20 -103 0 -110 -1 -110 -20z"/>
<path d="M9397 303 c-4 -3 -7 -12 -7 -20 0 -10 48 -13 246 -13 220 0 246 2
240 16 -3 9 -6 18 -6 20 0 7 -466 4 -473 -3z"/>
<path d="M10197 303 c-4 -3 -7 -12 -7 -20 0 -10 25 -13 110 -13 103 0 110 1
110 20 0 19 -7 20 -103 20 -57 0 -107 -3 -110 -7z"/>
<path d="M10647 290 c-5 -19 0 -20 103 -20 106 0 120 4 120 36 0 2 -49 4 -109
4 -100 0 -109 -2 -114 -20z"/>
<path d="M11236 294 c-3 -9 -6 -18 -6 -20 0 -2 49 -4 109 -4 100 0 109 2 114
20 5 19 0 20 -103 20 -89 0 -109 -3 -114 -16z"/>
<path d="M11580 290 c0 -19 7 -20 110 -20 103 0 110 1 110 20 0 19 -7 20 -110
20 -103 0 -110 -1 -110 -20z"/>
<path d="M11877 303 c-4 -3 -7 -12 -7 -20 0 -10 25 -13 110 -13 103 0 110 1
110 20 0 19 -7 20 -103 20 -57 0 -107 -3 -110 -7z"/>
<path d="M12430 290 c0 -16 7 -20 35 -20 28 0 35 4 35 20 0 16 -7 20 -35 20
-28 0 -35 -4 -35 -20z"/>
<path d="M40 220 c0 -20 7 -20 304 -20 268 0 305 2 310 16 3 9 6 18 6 20 0 2
-139 4 -310 4 -303 0 -310 0 -310 -20z"/>
<path d="M930 220 c0 -19 7 -20 240 -20 132 0 240 4 240 9 0 4 -31 6 -69 3
-51 -3 -77 0 -101 12 -26 12 -64 16 -172 16 -131 0 -138 -1 -138 -20z"/>
<path d="M1486 224 c-3 -9 -6 -18 -6 -20 0 -2 110 -4 244 -4 238 0 244 0 249
21 4 16 2 19 -11 13 -28 -13 -252 -17 -252 -5 0 7 -37 11 -109 11 -90 0 -110
-3 -115 -16z"/>
<path d="M2060 220 c0 -19 7 -20 240 -20 132 0 240 4 240 9 0 4 -30 6 -68 3
-48 -3 -78 0 -106 12 -29 12 -72 16 -172 16 -127 0 -134 -1 -134 -20z"/>
<path d="M2617 233 c-4 -3 -7 -12 -7 -20 0 -11 51 -13 282 -11 260 3 283 4
286 21 3 15 -7 17 -107 17 -62 0 -112 -4 -116 -10 -8 -13 -115 -13 -115 0 0
11 -212 14 -223 3z"/>
<path d="M3250 220 c0 -19 7 -20 110 -20 103 0 110 1 110 20 0 19 -7 20 -110
20 -103 0 -110 -1 -110 -20z"/>
<path d="M3540 220 c0 -17 7 -20 53 -20 41 0 55 4 65 20 12 19 10 20 -53 20
-58 0 -65 -2 -65 -20z"/>
<path d="M3727 220 c-5 -19 0 -20 103 -20 106 0 120 4 120 36 0 2 -49 4 -109
4 -100 0 -109 -2 -114 -20z"/>
<path d="M4052 223 c3 -16 24 -18 241 -21 133 -1 237 2 237 6 0 5 -31 7 -69 4
-51 -3 -77 0 -101 12 -26 12 -64 16 -172 16 -127 0 -139 -2 -136 -17z"/>
<path d="M5057 233 c-4 -3 -7 -12 -7 -20 0 -10 25 -13 109 -13 100 0 109 2
114 20 5 19 0 20 -102 20 -59 0 -111 -3 -114 -7z"/>
<path d="M5510 220 c0 -20 7 -20 279 -20 270 0 279 1 284 20 5 19 0 20 -103
20 -62 0 -111 -4 -115 -10 -3 -5 -30 -10 -60 -10 -30 0 -57 5 -60 10 -4 6 -53
10 -116 10 -102 0 -109 -1 -109 -20z"/>
<path d="M6430 220 c0 -20 5 -21 107 -18 93 3 108 5 111 21 3 15 -7 17 -107
17 -105 0 -111 -1 -111 -20z"/>
<path d="M6720 220 c0 -18 7 -20 54 -20 50 0 66 9 66 36 0 2 -27 4 -60 4 -53
0 -60 -2 -60 -20z"/>
<path d="M6906 224 c-3 -9 -6 -18 -6 -20 0 -2 49 -4 109 -4 107 0 121 4 121
36 0 2 -49 4 -109 4 -90 0 -110 -3 -115 -16z"/>
<path d="M7207 221 c-5 -21 -3 -21 268 -21 240 0 274 2 279 16 3 9 6 18 6 20
0 2 -57 4 -127 4 -89 0 -123 -3 -113 -10 18 -12 -266 -9 -291 3 -12 6 -18 3
-22 -12z"/>
<path d="M8110 220 c0 -19 7 -20 110 -20 88 0 110 3 110 14 0 8 6 17 13 19 6
3 -43 6 -110 6 -117 1 -123 0 -123 -19z"/>
<path d="M8740 220 c0 -20 7 -20 279 -20 245 0 280 2 285 16 3 9 6 18 6 20 0
9 -219 3 -225 -6 -3 -5 -30 -10 -60 -10 -30 0 -57 5 -60 10 -4 6 -53 10 -116
10 -102 0 -109 -1 -109 -20z"/>
<path d="M9377 220 c-5 -19 2 -19 259 -19 257 -1 264 0 264 19 0 19 -7 20
-259 20 -249 0 -259 -1 -264 -20z"/>
<path d="M10177 220 c-5 -19 0 -20 103 -20 106 0 120 4 120 36 0 2 -49 4 -109
4 -100 0 -109 -2 -114 -20z"/>
<path d="M10637 233 c-4 -3 -7 -12 -7 -20 0 -10 25 -13 110 -13 103 0 110 1
110 20 0 19 -7 20 -103 20 -57 0 -107 -3 -110 -7z"/>
<path d="M11220 220 c0 -20 7 -20 279 -20 245 0 280 2 285 16 3 9 6 18 6 20 0
9 -219 3 -225 -6 -3 -5 -30 -10 -60 -10 -30 0 -57 5 -60 10 -4 6 -53 10 -116
10 -102 0 -109 -1 -109 -20z"/>
<path d="M11857 220 c-5 -20 0 -20 238 -20 216 0 244 2 249 16 9 23 3 26 -28
14 -36 -13 -236 -13 -236 0 0 6 -43 10 -109 10 -100 0 -109 -2 -114 -20z"/>
<path d="M12417 220 c-5 -18 0 -20 39 -20 37 0 44 3 44 20 0 17 -7 20 -39 20
-30 0 -40 -4 -44 -20z"/>
<path d="M40 150 c0 -19 7 -20 135 -20 74 0 135 2 135 4 0 2 3 11 6 20 5 14
-10 16 -135 16 -134 0 -141 -1 -141 -20z"/>
<path d="M350 150 c0 -19 7 -20 130 -20 119 0 130 2 140 20 10 20 8 20 -130
20 -133 0 -140 -1 -140 -20z"/>
<path d="M950 161 c0 -27 33 -31 236 -29 190 3 209 5 212 21 3 16 -13 17 -222
17 -124 0 -226 -4 -226 -9z"/>
<path d="M1470 150 c0 -20 5 -20 242 -18 222 3 243 4 246 20 3 17 -14 18 -242
18 -240 0 -246 0 -246 -20z"/>
<path d="M2080 161 c0 -27 33 -31 236 -29 190 3 209 5 212 21 3 16 -13 17
-222 17 -124 0 -226 -4 -226 -9z"/>
<path d="M2600 150 c0 -20 7 -20 279 -20 270 0 279 1 284 20 5 20 0 20 -279
20 -277 0 -284 0 -284 -20z"/>
<path d="M3240 150 c0 -19 7 -20 104 -20 101 0 116 5 116 36 0 2 -49 4 -110 4
-103 0 -110 -1 -110 -20z"/>
<path d="M3552 153 c4 -22 47 -30 59 -11 15 23 10 28 -27 28 -28 0 -35 -3 -32
-17z"/>
<path d="M3717 163 c-4 -3 -7 -12 -7 -20 0 -10 25 -13 110 -13 103 0 110 1
110 20 0 19 -7 20 -103 20 -57 0 -107 -3 -110 -7z"/>
<path d="M4070 161 c0 -27 33 -31 236 -29 190 3 209 5 212 21 3 16 -13 17
-222 17 -124 0 -226 -4 -226 -9z"/>
<path d="M5040 150 c0 -20 5 -21 107 -18 93 3 108 5 111 21 3 15 -7 17 -107
17 -105 0 -111 -1 -111 -20z"/>
<path d="M5496 154 c-3 -9 -6 -18 -6 -20 0 -2 127 -3 282 -2 260 3 283 4 286
20 3 17 -15 18 -276 18 -246 0 -281 -2 -286 -16z"/>
<path d="M6416 154 c-3 -9 -6 -18 -6 -20 0 -2 49 -4 109 -4 100 0 109 2 114
20 5 19 0 20 -103 20 -89 0 -109 -3 -114 -16z"/>
<path d="M6730 155 c0 -33 57 -30 68 3 2 8 -9 12 -32 12 -26 0 -36 -4 -36 -15z"/>
<path d="M6897 163 c-4 -3 -7 -12 -7 -20 0 -10 25 -13 110 -13 103 0 110 1
110 20 0 19 -7 20 -103 20 -57 0 -107 -3 -110 -7z"/>
<path d="M7197 163 c-4 -3 -7 -12 -7 -20 0 -10 53 -13 275 -13 268 0 275 0
275 20 0 20 -7 20 -268 20 -148 0 -272 -3 -275 -7z"/>
<path d="M8097 156 c-3 -8 -3 -17 0 -20 4 -3 52 -6 109 -6 99 0 114 5 114 36
0 2 -49 4 -109 4 -84 0 -110 -3 -114 -14z"/>
<path d="M8730 150 c0 -20 7 -20 280 -20 273 0 280 0 280 20 0 20 -7 20 -280
20 -273 0 -280 0 -280 -20z"/>
<path d="M9367 163 c-4 -3 -7 -12 -7 -20 0 -10 25 -13 110 -13 103 0 110 1
110 20 0 19 -7 20 -103 20 -57 0 -107 -3 -110 -7z"/>
<path d="M9660 150 c10 -18 21 -20 130 -20 113 0 120 1 120 20 0 19 -7 20
-130 20 -128 0 -130 0 -120 -20z"/>
<path d="M10167 163 c-4 -3 -7 -12 -7 -20 0 -10 25 -13 110 -13 103 0 110 1
110 20 0 19 -7 20 -103 20 -57 0 -107 -3 -110 -7z"/>
<path d="M10620 150 c0 -20 5 -21 107 -18 93 3 108 5 111 21 3 15 -7 17 -107
17 -105 0 -111 -1 -111 -20z"/>
<path d="M11210 150 c0 -20 7 -20 280 -20 273 0 280 0 280 20 0 20 -7 20 -280
20 -273 0 -280 0 -280 -20z"/>
<path d="M11847 163 c-4 -3 -7 -12 -7 -20 0 -11 44 -13 242 -11 222 3 243 4
246 21 3 16 -13 17 -236 17 -131 0 -242 -3 -245 -7z"/>
<path d="M12407 163 c-4 -3 -7 -12 -7 -20 0 -9 15 -13 50 -13 43 0 50 3 50 20
0 17 -7 20 -43 20 -24 0 -47 -3 -50 -7z"/>
<path d="M47 93 c-20 -19 4 -23 115 -21 86 2 123 7 126 16 3 9 -25 12 -115 12
-66 0 -123 -3 -126 -7z"/>
<path d="M350 85 c0 -12 20 -15 120 -15 100 0 120 3 120 15 0 13 -20 15 -120
15 -100 0 -120 -2 -120 -15z"/>
<path d="M1002 88 c4 -10 53 -14 191 -16 162 -2 187 0 187 13 0 13 -27 15
-191 15 -148 0 -190 -3 -187 -12z"/>
<path d="M1460 85 c0 -13 33 -15 240 -15 207 0 240 2 240 15 0 13 -33 15 -240
15 -207 0 -240 -2 -240 -15z"/>
<path d="M2130 85 c10 -12 45 -15 196 -15 157 0 184 2 184 15 0 13 -28 15
-196 15 -174 0 -195 -2 -184 -15z"/>
<path d="M2586 85 c-5 -13 30 -15 279 -15 247 0 285 2 285 15 0 13 -38 15
-279 15 -239 0 -280 -2 -285 -15z"/>
<path d="M3227 93 c-19 -18 2 -23 103 -23 91 0 110 3 110 15 0 12 -18 15 -103
15 -57 0 -107 -3 -110 -7z"/>
<path d="M3560 90 c0 -5 5 -10 10 -10 6 0 10 5 10 10 0 6 -4 10 -10 10 -5 0
-10 -4 -10 -10z"/>
<path d="M3700 85 c0 -12 19 -15 110 -15 91 0 110 3 110 15 0 12 -19 15 -110
15 -91 0 -110 -3 -110 -15z"/>
<path d="M4123 88 c3 -10 50 -13 192 -13 142 0 189 3 193 13 3 9 -40 12 -193
12 -153 0 -196 -3 -192 -12z"/>
<path d="M5026 85 c-5 -13 11 -15 104 -15 91 0 110 3 110 15 0 12 -18 15 -104
15 -83 0 -105 -3 -110 -15z"/>
<path d="M5487 93 c-4 -3 -7 -10 -7 -15 0 -4 127 -7 283 -6 179 2 282 7 282
13 0 11 -547 20 -558 8z"/>
<path d="M6400 85 c0 -12 19 -15 110 -15 91 0 110 3 110 15 0 12 -19 15 -110
15 -91 0 -110 -3 -110 -15z"/>
<path d="M6740 84 c0 -8 5 -12 10 -9 6 3 10 10 10 16 0 5 -4 9 -10 9 -5 0 -10
-7 -10 -16z"/>
<path d="M6880 85 c0 -13 16 -15 107 -13 74 2 108 7 111 16 3 9 -23 12 -107
12 -93 0 -111 -2 -111 -15z"/>
<path d="M7180 85 c0 -13 34 -15 272 -13 206 2 272 6 276 16 3 9 -56 12 -272
12 -240 0 -276 -2 -276 -15z"/>
<path d="M8087 93 c-19 -18 2 -23 103 -23 91 0 110 3 110 15 0 12 -18 15 -103
15 -57 0 -107 -3 -110 -7z"/>
<path d="M8717 93 c-4 -3 -7 -10 -7 -15 0 -4 127 -7 282 -6 214 2 282 6 286
16 3 9 -57 12 -275 12 -154 0 -283 -3 -286 -7z"/>
<path d="M9350 85 c0 -13 16 -15 107 -13 74 2 108 7 111 16 3 9 -23 12 -107
12 -93 0 -111 -2 -111 -15z"/>
<path d="M9680 85 c0 -12 19 -15 115 -15 96 0 115 3 115 15 0 12 -19 15 -115
15 -96 0 -115 -3 -115 -15z"/>
<path d="M10150 85 c0 -12 19 -15 110 -15 91 0 110 3 110 15 0 12 -19 15 -110
15 -91 0 -110 -3 -110 -15z"/>
<path d="M10607 93 c-19 -18 2 -23 103 -23 91 0 110 3 110 15 0 12 -18 15
-103 15 -57 0 -107 -3 -110 -7z"/>
<path d="M11197 93 c-4 -3 -7 -10 -7 -15 0 -4 127 -7 282 -6 214 2 282 6 286
16 3 9 -57 12 -275 12 -154 0 -283 -3 -286 -7z"/>
<path d="M11830 85 c0 -13 31 -15 242 -13 182 2 242 6 246 16 3 9 -50 12 -242
12 -213 0 -246 -2 -246 -15z"/>
<path d="M12390 85 c0 -12 13 -15 55 -15 42 0 55 3 55 15 0 12 -13 15 -55 15
-42 0 -55 -3 -55 -15z"/>
<path d="M50 15 c0 -12 18 -15 100 -15 82 0 100 3 100 15 0 12 -18 15 -100 15
-82 0 -100 -3 -100 -15z"/>
<path d="M350 15 c0 -13 20 -15 126 -15 96 0 125 3 122 12 -3 9 -40 14 -126
16 -104 2 -122 0 -122 -13z"/>
<path d="M1115 15 c20 -9 69 -14 143 -15 93 0 112 3 112 15 0 13 -22 15 -142
14 -130 -1 -140 -2 -113 -14z"/>
<path d="M1447 23 c-20 -20 14 -23 238 -23 211 0 245 2 245 15 0 13 -33 15
-238 15 -131 0 -242 -3 -245 -7z"/>
<path d="M2248 14 c43 -19 243 -16 250 4 3 9 -29 12 -140 11 -134 -1 -141 -2
-110 -15z"/>
<path d="M2592 18 c4 -10 66 -14 255 -16 214 -2 252 0 263 13 11 13 -17 15
-255 15 -209 0 -266 -3 -263 -12z"/>
<path d="M3210 15 c0 -13 15 -15 108 -13 63 2 107 7 107 13 0 6 -44 11 -107
13 -93 2 -108 0 -108 -13z"/>
<path d="M3687 23 c-19 -18 2 -23 103 -23 91 0 110 3 110 15 0 12 -18 15 -103
15 -57 0 -107 -3 -110 -7z"/>
<path d="M4235 15 c20 -9 69 -14 143 -15 93 0 112 3 112 15 0 13 -22 15 -142
14 -130 -1 -140 -2 -113 -14z"/>
<path d="M5010 15 c0 -13 16 -15 107 -13 74 2 108 7 111 16 3 9 -23 12 -107
12 -93 0 -111 -2 -111 -15z"/>
<path d="M5486 15 c5 -13 41 -15 262 -13 193 2 256 6 260 16 3 9 -54 12 -262
12 -233 0 -265 -2 -260 -15z"/>
<path d="M6390 15 c0 -12 18 -15 105 -15 87 0 105 3 105 15 0 12 -18 15 -105
15 -87 0 -105 -3 -105 -15z"/>
<path d="M6867 23 c-19 -18 2 -23 103 -23 91 0 110 3 110 15 0 12 -18 15 -103
15 -57 0 -107 -3 -110 -7z"/>
<path d="M7167 23 c-20 -20 16 -23 252 -23 218 0 261 2 271 15 11 13 -18 15
-252 15 -146 0 -268 -3 -271 -7z"/>
<path d="M8070 15 c0 -12 18 -15 105 -15 87 0 105 3 105 15 0 12 -18 15 -105
15 -87 0 -105 -3 -105 -15z"/>
<path d="M8720 15 c19 -22 501 -22 520 0 11 13 -19 15 -260 15 -241 0 -271 -2
-260 -15z"/>
<path d="M9337 23 c-19 -18 2 -23 103 -23 91 0 110 3 110 15 0 12 -18 15 -103
15 -57 0 -107 -3 -110 -7z"/>
<path d="M9680 15 c0 -13 16 -15 107 -13 74 2 108 7 111 16 3 9 -23 12 -107
12 -93 0 -111 -2 -111 -15z"/>
<path d="M10137 23 c-19 -18 2 -23 103 -23 91 0 110 3 110 15 0 12 -18 15
-103 15 -57 0 -107 -3 -110 -7z"/>
<path d="M10590 15 c0 -13 16 -15 107 -13 74 2 108 7 111 16 3 9 -23 12 -107
12 -93 0 -111 -2 -111 -15z"/>
<path d="M11200 15 c19 -22 501 -22 520 0 11 13 -19 15 -260 15 -241 0 -271
-2 -260 -15z"/>
<path d="M11817 23 c-20 -20 14 -23 238 -23 211 0 245 2 245 15 0 13 -33 15
-238 15 -131 0 -242 -3 -245 -7z"/>
<path d="M12377 23 c-17 -17 -2 -23 58 -23 51 0 65 3 65 15 0 12 -13 15 -58
15 -32 0 -62 -3 -65 -7z"/>
</g>
</svg>
